# xmcd
#
# Track frame offsets:
#	150
#	12010
#	32107
#	46957
#	56692
#	70045
#	79625
#	92837
#	105555
#	118300
#	128115
#	136265
#	150245
#	162300
#	175822
#	186262
#	197352
#	214802
#	230209
#	246585
#
# Disc length: 3403
#
# Revision: 1
# Processed by: cddbd v1.5.1PL0 Copyright (c) Steve Scherf et al.
# Submitted via: ExactAudioCopy v0.95a4
# Normalized: r0:TRMNUM
#
DISCID=110d4914
DTITLE=Various Artist - Volani taboroveho ohne vol2
DYEAR=2001
DGENRE=Country
TTITLE0=Taborovy ohen
TTITLE1=Nashville
TTITLE2=Karabina
TTITLE3=Odval kamen
TTITLE4=Zamestnanci trati
TTITLE5=Strom
TTITLE6=Mexiko
TTITLE7=Pampa
TTITLE8=He, chlape
TTITLE9=Danio
TTITLE10=Slani chlapi
TTITLE11=Na ceste
TTITLE12=Uniformy
TTITLE13=Neuhadnes
TTITLE14=Stara pacificka
TTITLE15=Smith-Wesson Strory
TTITLE16=Bylo to tenkrat na jare
TTITLE17=Podzim
TTITLE18=Babicka Dallila
TTITLE19=Fordka
EXTD=
EXTT0=
EXTT1=
EXTT2=
EXTT3=
EXTT4=
EXTT5=
EXTT6=
EXTT7=
EXTT8=
EXTT9=
EXTT10=
EXTT11=
EXTT12=
EXTT13=
EXTT14=
EXTT15=
EXTT16=
EXTT17=
EXTT18=
EXTT19=
PLAYORDER=
